<svg id="svg" xmlns="http://www.w3.org/2000/svg" width="400" height="400" viewBox="0, 0, 400,400">
  <g id="svgg">
    <path id="path0"
          d="M186.951 118.402 C 170.468 121.062,155.065 127.732,141.802 137.952 C 139.101 140.033,128.628 150.220,127.400 151.961 C 126.960 152.585,125.601 154.424,124.380 156.047 C 116.381 166.683,110.815 179.664,107.763 194.800 C 106.474 201.189,106.105 218.167,107.127 224.000 C 109.251 236.115,111.441 242.912,116.424 252.859 C 129.585 279.128,155.057 298.584,182.000 302.947 C 211.020 307.646,238.298 301.035,258.528 284.400 C 264.609 279.400,263.036 273.791,252.740 263.770 C 245.316 256.543,240.652 254.365,236.895 256.371 C 236.513 256.575,235.930 256.845,235.600 256.972 C 235.270 257.099,233.650 257.997,232.000 258.967 C 215.402 268.727,199.293 270.927,182.600 265.716 C 165.126 260.261,146.368 241.251,151.300 233.994 C 153.686 230.483,150.820 230.616,227.000 230.475 C 290.608 230.357,288.753 230.537,291.570 224.200 C 295.153 216.143,293.487 193.189,288.334 179.621 C 278.837 154.613,259.988 134.790,236.400 125.003 C 234.970 124.409,233.260 123.680,232.600 123.383 C 221.726 118.479,200.694 116.185,186.951 118.402 M204.458 154.018 C 219.560 155.542,230.482 160.523,240.716 170.551 C 250.637 180.273,253.422 187.576,248.802 191.751 C 246.485 193.844,247.550 193.800,199.200 193.800 L 154.200 193.800 152.435 192.800 C 145.026 188.601,151.444 175.716,166.400 164.764 C 177.524 156.618,191.399 152.700,204.458 154.018 "
          stroke="none" fill="#fcfcfc" fill-rule="evenodd"></path>
    <path id="path1"
          d="M56.859 18.818 C 53.802 19.440,51.793 20.926,50.530 23.499 L 49.400 25.800 49.414 126.600 C 49.429 240.949,49.172 231.882,52.802 246.168 C 62.228 283.267,83.367 314.574,112.647 334.800 C 139.696 353.485,168.916 362.762,200.800 362.788 C 212.056 362.797,218.376 362.028,235.600 358.556 C 251.658 355.320,278.244 342.735,291.600 332.049 C 311.956 315.762,324.921 300.119,335.401 279.200 C 352.734 244.605,356.253 207.971,345.949 169.400 C 342.879 157.909,334.303 139.049,327.489 128.800 C 302.479 91.188,262.240 65.855,220.119 61.204 C 204.823 59.515,178.715 60.402,167.761 62.982 C 154.391 66.132,143.647 70.148,130.400 76.945 C 125.670 79.372,120.214 82.169,118.275 83.161 C 113.306 85.705,110.194 85.942,108.292 83.923 C 105.910 81.395,105.906 81.350,105.603 54.200 C 105.175 15.839,107.362 18.645,77.800 18.535 C 67.240 18.496,57.816 18.623,56.859 18.818 M213.416 118.386 C 220.828 119.595,228.814 121.675,232.600 123.383 C 233.260 123.680,234.970 124.409,236.400 125.003 C 264.424 136.631,287.431 164.728,291.752 192.600 C 295.270 215.296,293.400 227.526,286.152 229.225 C 281.810 230.242,275.022 230.386,227.000 230.475 C 150.820 230.616,153.686 230.483,151.300 233.994 C 146.368 241.251,165.126 260.261,182.600 265.716 C 199.293 270.927,215.402 268.727,232.000 258.967 C 233.650 257.997,235.270 257.099,235.600 256.972 C 235.930 256.845,236.513 256.575,236.895 256.371 C 240.652 254.365,245.316 256.543,252.740 263.770 C 263.036 273.791,264.609 279.400,258.528 284.400 C 238.298 301.035,211.020 307.646,182.000 302.947 C 155.057 298.584,129.585 279.128,116.424 252.859 C 111.441 242.912,109.251 236.115,107.127 224.000 C 106.105 218.167,106.474 201.189,107.763 194.800 C 110.815 179.664,116.381 166.683,124.380 156.047 C 125.601 154.424,126.960 152.585,127.400 151.961 C 128.628 150.220,139.101 140.033,141.802 137.952 C 162.527 121.981,189.794 114.532,213.416 118.386 "
          stroke="none" fill="#eb6404" fill-rule="evenodd"></path>
    <path id="path2"
          d="M55.604 16.828 C 51.054 17.748,48.546 20.192,47.401 24.821 C 46.157 29.851,46.366 218.410,47.630 231.400 C 48.211 237.369,49.353 242.993,51.653 251.200 C 57.466 271.953,68.997 294.396,81.041 308.400 C 104.965 336.220,137.113 356.128,166.600 361.386 C 194.097 366.290,205.504 366.485,227.908 362.437 C 238.715 360.485,242.959 359.310,254.800 354.994 C 277.128 346.855,300.766 330.126,316.964 311.000 C 332.833 292.262,344.855 268.939,349.646 247.600 C 353.384 230.952,354.845 216.203,354.026 203.400 C 350.695 151.328,323.396 106.125,279.077 79.295 C 262.789 69.435,240.413 61.115,225.600 59.413 C 224.610 59.299,222.270 59.022,220.400 58.797 C 212.342 57.828,184.084 57.932,178.600 58.952 C 178.160 59.033,176.540 59.229,175.000 59.386 C 163.416 60.568,145.409 66.632,130.000 74.541 C 126.150 76.517,121.200 79.053,119.000 80.176 C 114.640 82.402,113.017 82.740,111.197 81.799 C 108.166 80.231,108.050 79.279,107.802 53.742 C 107.481 20.895,107.283 19.897,100.600 17.493 C 97.975 16.548,59.777 15.984,55.604 16.828 M98.800 19.364 C 105.123 22.025,105.251 22.685,105.603 54.200 C 105.906 81.350,105.910 81.395,108.292 83.923 C 110.194 85.942,113.306 85.705,118.275 83.161 C 120.214 82.169,125.670 79.372,130.400 76.945 C 143.647 70.148,154.391 66.132,167.761 62.982 C 178.715 60.402,204.823 59.515,220.119 61.204 C 262.240 65.855,302.479 91.188,327.489 128.800 C 334.303 139.049,342.879 157.909,345.949 169.400 C 356.253 207.971,352.734 244.605,335.401 279.200 C 324.921 300.119,311.956 315.762,291.600 332.049 C 278.244 342.735,251.658 355.320,235.600 358.556 C 218.376 362.028,212.056 362.797,200.800 362.788 C 168.916 362.762,139.696 353.485,112.647 334.800 C 83.367 314.574,62.228 283.267,52.802 246.168 C 49.172 231.882,49.429 240.949,49.414 126.600 L 49.400 25.800 50.530 23.499 C 51.793 20.926,53.802 19.440,56.859 18.818 C 60.620 18.052,96.803 18.523,98.800 19.364 M194.400 154.049 C 180.225 155.680,169.570 160.828,159.356 170.980 C 148.386 181.885,146.068 189.192,152.435 192.800 L 154.200 193.800 199.200 193.800 C 247.550 193.800,246.485 193.844,248.802 191.751 C 252.484 188.424,251.681 183.789,246.176 176.600 C 234.070 160.791,213.535 151.847,194.400 154.049 "
          stroke="none" fill="#747474" fill-rule="evenodd"></path>
  </g>
</svg>
