<svg id="svg" xmlns="http://www.w3.org/2000/svg" width="400" height="400" viewBox="0, 0, 400,400">
  <g id="svgg">
    <path id="path0"
          d="M53.074 18.180 C 51.038 18.906,50.053 19.839,49.042 22.000 L 48.200 23.800 48.082 118.000 C 47.940 230.503,47.949 230.845,51.135 244.000 C 60.030 280.721,78.933 310.207,107.857 332.479 C 125.798 346.294,150.798 357.659,169.231 360.378 C 172.184 360.814,176.310 361.518,178.400 361.943 C 186.433 363.575,189.164 363.800,200.600 363.778 C 209.072 363.762,212.677 363.600,215.400 363.112 C 227.246 360.988,230.625 360.402,234.390 359.816 C 240.873 358.807,255.808 353.564,265.800 348.789 C 301.482 331.738,329.531 300.879,343.414 263.400 C 346.932 253.901,347.344 252.516,348.237 247.200 C 348.588 245.110,349.296 241.690,349.811 239.600 C 353.672 223.923,353.860 199.392,350.234 184.400 C 349.675 182.090,348.766 177.745,348.215 174.744 C 346.884 167.508,342.688 155.724,337.661 145.111 C 317.848 103.279,275.713 70.419,230.400 61.462 C 217.758 58.963,190.911 58.662,173.626 60.827 C 159.037 62.654,136.152 71.574,118.400 82.354 C 113.892 85.091,111.374 85.851,109.459 85.050 C 106.492 83.811,106.627 85.206,106.374 53.200 C 106.130 22.341,106.158 22.719,103.941 20.193 C 101.693 17.634,101.309 17.598,76.627 17.618 C 59.097 17.632,54.288 17.746,53.074 18.180 M210.716 118.022 C 243.248 121.555,273.234 143.767,285.974 173.771 C 290.585 184.629,291.036 186.344,292.608 198.967 C 294.881 217.220,293.158 227.066,287.223 229.739 C 286.470 230.078,268.655 230.253,219.800 230.400 C 147.212 230.619,152.333 230.442,150.199 232.802 C 145.538 237.957,160.801 256.340,175.225 262.945 C 194.597 271.815,213.976 270.398,232.237 258.776 C 241.177 253.087,242.189 253.347,253.152 264.153 C 266.448 277.259,266.329 279.626,251.886 289.216 C 233.622 301.343,216.044 305.610,190.785 304.049 C 145.711 301.263,107.838 261.037,106.510 214.540 C 105.081 164.508,140.169 124.171,190.600 117.870 C 193.344 117.527,207.118 117.631,210.716 118.022 "
          stroke="none" fill="#ec781d" fill-rule="evenodd"></path>
    <path id="path1"
          d="M195.984 153.992 C 179.387 156.058,169.561 160.675,159.000 171.370 C 147.839 182.674,144.988 191.659,151.949 193.593 C 152.885 193.853,170.011 193.996,200.215 193.998 L 247.030 194.000 248.815 193.100 C 253.496 190.740,252.802 185.768,246.626 177.417 C 240.189 168.714,227.787 159.498,219.200 157.039 C 211.200 154.747,200.841 153.388,195.984 153.992 "
          stroke="none" fill="#848486" fill-rule="evenodd"></path>
    <path id="path2"
          d="M0.000 200.000 L 0.000 400.000 200.000 400.000 L 400.000 400.000 400.000 200.000 L 400.000 0.000 200.000 0.000 L 0.000 0.000 0.000 200.000 M100.690 18.204 C 103.020 18.896,104.876 20.723,105.652 23.089 C 106.019 24.206,106.207 32.061,106.374 53.200 C 106.627 85.206,106.492 83.811,109.459 85.050 C 111.374 85.851,113.892 85.091,118.400 82.354 C 133.608 73.119,148.083 66.976,164.826 62.651 C 178.469 59.127,202.567 58.314,225.000 60.622 C 230.452 61.183,236.462 62.718,248.525 66.633 C 283.093 77.853,314.071 103.255,332.768 135.713 C 339.474 147.353,346.394 164.839,348.215 174.744 C 348.766 177.745,349.675 182.090,350.234 184.400 C 353.860 199.392,353.672 223.923,349.811 239.600 C 349.296 241.690,348.588 245.110,348.237 247.200 C 347.344 252.516,346.932 253.901,343.414 263.400 C 329.531 300.879,301.482 331.738,265.800 348.789 C 255.808 353.564,240.873 358.807,234.390 359.816 C 230.625 360.402,227.246 360.988,215.400 363.112 C 212.677 363.600,209.072 363.762,200.600 363.778 C 189.164 363.800,186.433 363.575,178.400 361.943 C 176.310 361.518,172.184 360.814,169.231 360.378 C 150.798 357.659,125.798 346.294,107.857 332.479 C 78.933 310.207,60.030 280.721,51.135 244.000 C 47.949 230.845,47.940 230.503,48.082 118.000 L 48.200 23.800 49.042 22.000 C 50.053 19.839,51.038 18.906,53.074 18.180 C 55.448 17.333,97.829 17.355,100.690 18.204 M190.600 117.870 C 135.639 124.737,98.353 173.848,107.595 227.200 C 114.716 268.310,150.723 301.573,190.785 304.049 C 216.044 305.610,233.622 301.343,251.886 289.216 C 266.329 279.626,266.448 277.259,253.152 264.153 C 242.189 253.347,241.177 253.087,232.237 258.776 C 213.976 270.398,194.597 271.815,175.225 262.945 C 160.801 256.340,145.538 237.957,150.199 232.802 C 152.333 230.442,147.212 230.619,219.800 230.400 C 268.655 230.253,286.470 230.078,287.223 229.739 C 293.158 227.066,294.881 217.220,292.608 198.967 C 291.036 186.344,290.585 184.629,285.974 173.771 C 270.456 137.223,229.206 113.046,190.600 117.870 M211.200 155.243 C 223.910 157.797,231.965 162.058,240.987 170.998 C 251.541 181.457,254.626 190.170,248.815 193.100 L 247.030 194.000 200.215 193.998 C 170.011 193.996,152.885 193.853,151.949 193.593 C 144.988 191.659,147.839 182.674,159.000 171.370 C 169.561 160.675,179.387 156.058,195.984 153.992 C 199.776 153.520,204.600 153.917,211.200 155.243 "
          stroke="none" fill="#ffffff" fill-rule="evenodd"></path>
  </g>
</svg>
